<?xml version="1.0" encoding="iso-8859-1"?>
<!-- Uploaded to: SVG Repo, www.svgrepo.com, Generator: SVG Repo Mixer Tools -->
<!DOCTYPE svg PUBLIC "-//W3C//DTD SVG 1.1//EN" "http://www.w3.org/Graphics/SVG/1.1/DTD/svg11.dtd">
<svg fill="#ffffff" height="800px" width="800px" version="1.1" id="Capa_1" xmlns="http://www.w3.org/2000/svg" xmlns:xlink="http://www.w3.org/1999/xlink" 
	 viewBox="0 0 373.335 373.335" xml:space="preserve">
<g>
	<path d="M304.199,319.708h-47.271l-59.867-161.632L252.367,8.76c1.247-3.366-0.471-7.106-3.837-8.354
		c-3.367-1.244-7.106,0.472-8.353,3.838l-50.053,135.103L140.082,4.244c-1.247-3.366-4.987-5.084-8.353-3.838
		c-3.366,1.247-5.084,4.987-3.837,8.354l55.299,149.298l-60.672,163.764H73.301c-12.891,0-23.159,8.974-24.97,21.822
		c-1.784,12.652,5.496,23.94,17.702,27.451c4.938,1.42,10.093,2.14,15.323,2.14c21.973,0,40.673-12.764,47.397-30.457
		c0.522-1.374,61.375-165.988,61.375-165.988s59.669,161.722,59.901,162.554c5.442,19.523,23.374,33.891,44.608,33.891h9.561
		c11.619,0,21.072-9.453,21.072-21.072V340.78C325.271,329.161,315.818,319.708,304.199,319.708z M81.357,360.235
		c-4.015,0-7.961-0.55-11.73-1.634c-7.281-2.094-9.125-8.162-8.423-13.143c0.692-4.906,4.275-10.637,12.097-10.637h44.356
		c-0.036,0.15-0.833,2.521-0.859,2.862C112.14,350.727,98.016,360.235,81.357,360.235z M312.271,352.163
		c0,4.451-3.621,8.072-8.072,8.072h-9.561c-15.719,0-28.923-10.947-32.406-25.616c-0.048-0.442-0.367-1.713-0.402-1.911h42.369
		c4.451,0,8.072,3.621,8.072,8.072V352.163z"/>
	<path d="M187.57,307.835c-14.612,0-26.5,11.888-26.5,26.5c0,12.37,8.52,22.785,20,25.691v13.309h13v-13.309
		c11.48-2.906,20-13.321,20-25.691C214.07,319.723,202.182,307.835,187.57,307.835z M187.57,349.235c-7.444,0-13.5-6.056-13.5-13.5
		s6.056-13.5,13.5-13.5s13.5,6.056,13.5,13.5S195.014,349.235,187.57,349.235z"/>
</g>
</svg>